# xmcd
#
# Track frame offsets:
#	150
#	19515
#	39270
#	61662
#	80127
#	95960
#	115457
#	137217
#	158807
#	176512
#	194772
#	214482
#	235345
#	251725
#
# Disc length: 3567 seconds
#
# Revision: 0
# Processed by: cddbd v1.5.2PL0 Copyright (c) Steve Scherf et al.
# Submitted via: EasyCDDAExtractor 11.0.2.1
#
DISCID=cd0ded0e
DTITLE=Moebadis and Snake - Glockz And Rockz
DYEAR=2001
DGENRE=Rap
TTITLE0=It's Beef
TTITLE1=Spitting That Game
TTITLE2=Fuck-Em
TTITLE3=We Are
TTITLE4=Same Hood (Bonus Track)
TTITLE5=Jedi Samurai
TTITLE6=Blockwetta
TTITLE7=Doomsday
TTITLE8=Title To Collect/Mic Check
TTITLE9=P-Nanny
TTITLE10=Damn Shame
TTITLE11=Great Lakes
TTITLE12=Man Or Not
TTITLE13=Detroit Homicide
EXTD=
EXTT0=
EXTT1=
EXTT2=
EXTT3=
EXTT4=
EXTT5=
EXTT6=
EXTT7=
EXTT8=
EXTT9=
EXTT10=
EXTT11=
EXTT12=
EXTT13=
PLAYORDER=
